<?xml version="1.0" encoding="UTF-8" standalone="no"?>
<svg
   xmlns:dc="http://purl.org/dc/elements/1.1/"
   xmlns:cc="http://creativecommons.org/ns#"
   xmlns:rdf="http://www.w3.org/1999/02/22-rdf-syntax-ns#"
   xmlns:svg="http://www.w3.org/2000/svg"
   xmlns="http://www.w3.org/2000/svg"
   xmlns:sodipodi="http://sodipodi.sourceforge.net/DTD/sodipodi-0.dtd"
   xmlns:inkscape="http://www.inkscape.org/namespaces/inkscape"
   fill="none"
   height="48"
   viewBox="0 0 48 48"
   width="48"
   version="1.1"
   id="svg10"
   sodipodi:docname="favicon.svg"
   inkscape:version="1.0.1 (3bc2e813f5, 2020-09-07)">
  <metadata
     id="metadata16">
    <rdf:RDF>
      <cc:Work
         rdf:about="">
        <dc:format>image/svg+xml</dc:format>
        <dc:type
           rdf:resource="http://purl.org/dc/dcmitype/StillImage" />
      </cc:Work>
    </rdf:RDF>
  </metadata>
  <defs
     id="defs14" />
  <sodipodi:namedview
     pagecolor="#ffffff"
     bordercolor="#666666"
     borderopacity="1"
     objecttolerance="10"
     gridtolerance="10"
     guidetolerance="10"
     inkscape:pageopacity="0"
     inkscape:pageshadow="2"
     inkscape:window-width="3699"
     inkscape:window-height="2126"
     id="namedview12"
     showgrid="false"
     inkscape:zoom="15.3125"
     inkscape:cx="24"
     inkscape:cy="13.55102"
     inkscape:window-x="-11"
     inkscape:window-y="-11"
     inkscape:window-maximized="1"
     inkscape:current-layer="layer1"
     inkscape:document-rotation="0" />
  <g
     inkscape:label="Capa 1"
     id="layer1"
     transform="matrix(2.0173498,0,0,2.0173498,-10.577952,-537.59945)">
    <g
       id="g856"
       inkscape:export-xdpi="96"
       inkscape:export-ydpi="96"
       transform="matrix(0.57114464,0,0,0.57117182,43.961926,262.77581)"
       style="stroke:#ffffff;stroke-opacity:1">
      <g
         transform="matrix(2.25,0,0,2.25,1076.1811,-107.65503)"
         id="g893"
         style="fill:#4682b4;fill-opacity:1;stroke:#4682b4;stroke-opacity:1">
        <path
           style="fill:#4682b4;fill-opacity:1;stroke:#4682b4;stroke-width:0.2;stroke-miterlimit:4;stroke-dasharray:none;stroke-opacity:1"
           id="path884"
           d="m -501.66695,57.254903 c -0.17591,0.01121 -0.34927,0.03908 -0.52337,0.06525 -0.17243,0.02867 -0.34825,0.01632 -0.52078,0.0405 -0.13568,0.01353 -0.26655,0.04825 -0.40019,0.07272 -0.12214,0.03805 -0.24543,0.07577 -0.36354,0.125189 -0.0205,0.0094 -0.0414,0.01807 -0.0616,0.02833 -0.043,0.02192 -0.17008,0.09148 -0.12828,0.0673 1.11875,-0.647181 0.74709,-0.439276 0.51052,-0.279154 -0.14825,0.07979 -0.23425,0.201869 -0.30418,0.350815 -0.0657,0.160674 -0.0948,0.3314 -0.11057,0.503217 -0.0151,0.214368 -0.0116,0.429623 -0.009,0.644381 0.002,0.137926 0.003,0.275854 0.004,0.41379 5e-4,0.110554 4.9e-4,0.22111 5.1e-4,0.331666 6.8e-4,0.102626 -0.006,0.204933 0.0126,0.306223 0.0354,0.09767 0.0617,0.198142 0.0984,0.295342 0.046,0.128141 0.0976,0.25474 0.15301,0.379213 0.0605,0.136627 0.10845,0.278078 0.15384,0.420294 0.056,0.170028 0.10447,0.342228 0.1606,0.512213 0.0512,0.14575 0.11193,0.287684 0.17013,0.430762 0.0824,0.15744 0.15427,0.319481 0.22087,0.484097 0.0417,0.104363 0.0811,0.20859 0.11608,0.315386 0.0275,0.108352 0.0825,0.202982 0.13631,0.299178 0.0662,0.115976 0.1483,0.221567 0.21802,0.335416 0.0814,0.112851 0.15603,0.230042 0.23633,0.343592 0.0678,0.109933 0.13696,0.219323 0.19754,0.333576 0.0811,0.131231 0.17094,0.256518 0.26124,0.381453 0.09,0.128035 0.17722,0.257779 0.25961,0.391025 0.18118,0.279589 0.39131,0.538879 0.61794,0.782601 0.15104,0.185049 0.34116,0.324211 0.53863,0.454647 0.16745,0.111521 0.333,0.22346 0.52619,0.283529 0.15434,0.03881 0.31497,0.03942 0.47319,0.0405 0.13878,-0.0054 0.27927,0.01304 0.4148,-0.01992 0.14161,-0.03527 0.27687,-0.09055 0.40945,-0.15029 0.29538,-0.171182 -0.31559,0.183029 -0.60588,0.346068 -0.0147,0.0082 0.0273,-0.01968 0.0409,-0.02962 0.0417,-0.0305 0.0827,-0.06173 0.12483,-0.09151 0.087,-0.07895 0.18429,-0.144818 0.2766,-0.217116 0.11897,-0.09317 0.21826,-0.207554 0.31759,-0.320582 0.0805,-0.102769 0.1712,-0.196499 0.25879,-0.293049 0.12847,-0.153052 0.25966,-0.303563 0.39495,-0.450622 0.14084,-0.14864 0.29174,-0.286563 0.42442,-0.442842 0.10965,-0.121729 0.20299,-0.254545 0.28732,-0.394608 0.0618,-0.121429 0.12608,-0.240617 0.19491,-0.358258 0.0593,-0.124705 0.13765,-0.238484 0.21438,-0.352839 0.0835,-0.118129 0.16276,-0.238616 0.23571,-0.36358 0.0663,-0.122914 0.13732,-0.243144 0.20578,-0.364862 0.0928,-0.162654 0.17896,-0.32891 0.26913,-0.493021 0.0977,-0.163746 0.18675,-0.329286 0.26199,-0.504606 0.0942,-0.213213 0.1768,-0.431129 0.264,-0.64724 0.0796,-0.22026 0.13524,-0.448867 0.18977,-0.676462 0.0479,-0.171309 0.0826,-0.345838 0.12777,-0.517772 0.0373,-0.127713 0.0479,-0.260245 0.054,-0.392465 0.004,-0.125775 0.003,-0.25164 0.003,-0.37746 10e-4,-0.140543 3e-4,-0.281095 7.1e-4,-0.421643 0.006,-0.138248 -0.013,-0.270481 -0.0783,-0.392789 -0.0616,-0.116366 -0.13996,-0.222965 -0.2355,-0.31343 -0.0851,-0.09679 -0.18534,-0.176248 -0.29089,-0.249291 -0.1162,-0.07044 -0.23129,-0.142876 -0.34903,-0.210719 -0.15624,-0.0948 -0.32403,-0.168347 -0.48909,-0.246069 -0.13115,-0.06129 -0.26494,-0.115281 -0.39497,-0.178701 -0.12332,-0.0541 -0.25338,-0.09028 -0.37897,-0.138028 -0.13325,-0.06561 -0.27902,-0.09396 -0.41928,-0.139953 -0.17631,-0.03716 -0.34425,-0.09989 -0.51316,-0.161317 -0.17738,-0.0666 -0.34867,-0.148632 -0.52743,-0.211436 -0.17338,-0.05381 -0.35152,-0.09008 -0.52582,-0.139857 -0.1464,-0.05024 -0.30108,-0.05875 -0.45271,-0.08191 -0.18791,-0.0286 -0.37749,-0.04048 -0.56726,-0.04666 -0.18441,-0.0056 -0.36891,-0.0037 -0.55337,-0.0036 -0.16254,2.92e-4 -0.32508,6.6e-5 -0.48761,2.76e-4 -0.13721,4.23e-4 -0.27443,9.89e-4 -0.41164,0.0013 -0.13485,-0.0037 -0.26594,-0.0058 -0.39702,0.02802 0.13864,-0.09522 -0.40293,0.207244 -0.25295,0.12029 0.73675,-0.427152 0.84955,-0.502792 0.59876,-0.337864 -0.0555,0.0456 -0.0291,0.02163 -0.0794,0.07184 0,0 -0.75521,0.311994 -0.75521,0.311994 v 0 c 0.0525,-0.05073 0.0269,-0.02341 0.0763,-0.08236 0.30134,-0.254303 0.68019,-0.453296 1.06024,-0.575009 0.13581,-0.02169 0.2722,-0.01653 0.40941,-0.01653 0.13611,2.77e-4 0.27222,8.02e-4 0.40833,0.0011 0.16272,-5e-6 0.32544,-6.69e-4 0.48815,-5.37e-4 0.18421,3.3e-4 0.36841,0.0032 0.55255,0.0079 0.19173,0.0084 0.38268,0.02407 0.57268,0.05202 0.15556,0.01734 0.3103,0.04094 0.45925,0.09122 0.17709,0.04793 0.35723,0.08608 0.53127,0.144559 0.17548,0.06925 0.34667,0.14938 0.52497,0.211611 0.16897,0.0588 0.33723,0.118345 0.51202,0.158066 0.14341,0.04198 0.28816,0.07896 0.42482,0.140884 0.12888,0.04457 0.25801,0.08925 0.38258,0.145011 0.13027,0.06056 0.26187,0.118018 0.39118,0.180696 0.16793,0.0787 0.3361,0.15757 0.49697,0.250134 0.11827,0.07173 0.23821,0.140713 0.35413,0.216233 0.10555,0.07912 0.20934,0.160478 0.29627,0.260495 0.0979,0.0994 0.18413,0.209978 0.24824,0.334471 0.0717,0.133178 0.10246,0.276868 0.0961,0.428662 5.9e-4,0.140074 1.4e-4,0.280151 0.002,0.420215 3e-5,0.127152 1e-4,0.254324 -0.003,0.381443 -0.004,0.137093 -0.01,0.275608 -0.0456,0.408811 -0.0481,0.172411 -0.0866,0.347107 -0.13696,0.519007 -0.0524,0.230378 -0.11293,0.45937 -0.1814,0.685426 -0.0838,0.219361 -0.17913,0.434519 -0.2694,0.651312 -0.0304,0.07647 -0.057,0.154456 -0.0893,0.230104 -0.0306,0.07144 -0.079,0.131152 -0.11828,0.197379 -0.0159,0.02678 -0.0293,0.05495 -0.044,0.08242 -0.0904,0.162757 -0.17631,0.327615 -0.26583,0.490839 -0.0649,0.124164 -0.14048,0.242029 -0.20564,0.366058 -0.0691,0.128249 -0.14568,0.252109 -0.23307,0.368737 -0.0739,0.114401 -0.15904,0.222837 -0.21554,0.347122 -0.0655,0.121259 -0.14436,0.233945 -0.19737,0.361887 -0.085,0.142035 -0.1668,0.285592 -0.28226,0.406132 -0.13162,0.160153 -0.27893,0.303589 -0.42686,0.448445 -0.13458,0.143863 -0.26877,0.288962 -0.38737,0.446518 -0.088,0.09673 -0.17983,0.189139 -0.2616,0.291105 -0.0964,0.118367 -0.19976,0.231449 -0.31112,0.336091 -0.0353,0.02739 -0.0673,0.05888 -0.10321,0.08544 -0.057,0.04212 -0.12352,0.07371 -0.17013,0.129349 -0.0814,0.07293 0.007,-0.0021 -0.0827,0.06151 -0.27719,0.196823 -0.56158,0.389666 -0.87592,0.524728 -0.13434,0.05766 -0.275,0.10411 -0.41857,0.131907 -0.14118,0.01447 -0.28324,0.01009 -0.42504,0.0087 -0.16328,-0.005 -0.32945,-0.01107 -0.48587,-0.06272 -0.19352,-0.07313 -0.36113,-0.191211 -0.53385,-0.303486 -0.20075,-0.136445 -0.3935,-0.279747 -0.5403,-0.476685 -0.22283,-0.252371 -0.44251,-0.509708 -0.63309,-0.787545 -0.0903,-0.126725 -0.17466,-0.257096 -0.26204,-0.385725 -0.093,-0.127708 -0.18556,-0.255646 -0.26856,-0.390199 -0.0595,-0.111133 -0.13071,-0.215565 -0.19286,-0.325113 -0.0796,-0.116057 -0.15876,-0.232208 -0.23961,-0.347449 -0.0696,-0.115009 -0.15268,-0.220903 -0.2203,-0.337108 -0.0573,-0.100011 -0.11482,-0.199305 -0.14503,-0.311854 -0.0367,-0.104764 -0.07,-0.210472 -0.11076,-0.313861 -0.0633,-0.165305 -0.13111,-0.328929 -0.21827,-0.483425 -0.0625,-0.143823 -0.1217,-0.288811 -0.17347,-0.436863 -0.0539,-0.170739 -0.10417,-0.342572 -0.1615,-0.512223 -0.0438,-0.139171 -0.0937,-0.276439 -0.15064,-0.410747 -0.0584,-0.124606 -0.10654,-0.253892 -0.15602,-0.382181 -0.042,-0.100554 -0.0674,-0.205948 -0.1081,-0.307077 -0.0223,-0.106404 -0.0213,-0.212511 -0.0188,-0.321028 0,-0.11061 -10e-6,-0.221221 1.4e-4,-0.331831 2.5e-4,-0.13887 7.4e-4,-0.277739 0.002,-0.416607 0.001,-0.216279 0.002,-0.432556 0.004,-0.648832 0.012,-0.179809 0.0435,-0.357539 0.10328,-0.52809 0.0568,-0.155057 0.12875,-0.311454 0.28186,-0.391212 0.33575,-0.242662 0.69734,-0.454949 1.07831,-0.617705 0.12237,-0.04207 0.24362,-0.08903 0.37117,-0.113511 0.13332,-0.02766 0.26672,-0.05365 0.40263,-0.06564 0.17266,-0.01242 0.34641,-0.01356 0.51762,-0.04246 0.17624,-0.026 0.35302,-0.04566 0.52953,-0.06926 0,0 -0.6551,0.490305 -0.6551,0.490305 z"
           inkscape:connector-curvature="0" />
        <path
           style="fill:#4682b4;fill-opacity:1;stroke:#4682b4;stroke-width:0.2;stroke-miterlimit:4;stroke-dasharray:none;stroke-opacity:1"
           id="path886"
           d="m -499.63103,56.110449 c -0.061,-0.143168 -0.1453,-0.270453 -0.23932,-0.393242 -0.0881,-0.08878 -0.19278,-0.15713 -0.28737,-0.238428 -0.16282,-0.13799 -0.30945,-0.293473 -0.47137,-0.432226 -0.15922,-0.130602 -0.32388,-0.253929 -0.4874,-0.379055 -0.13165,-0.115145 -0.28373,-0.181254 -0.45294,-0.216539 -0.20627,-0.05349 -0.42124,-0.06118 -0.63318,-0.06971 -0.20926,-0.0072 -0.41867,-0.0065 -0.62802,-0.0052 -0.0719,0.0095 -0.14844,-0.01112 -0.21998,0.0015 -0.0106,0.0019 -0.0378,0.02065 -0.0286,0.01507 0.70467,-0.426344 0.53493,-0.636511 0.71621,-0.392168 0.0958,0.08369 0.20014,0.156874 0.30271,0.231975 0.11299,0.05812 0.18365,0.144426 0.22419,0.262839 0.0176,0.116726 0.0332,0.231913 0.075,0.342905 0.0382,0.121489 0.11189,0.208511 0.20536,0.290612 0.11277,0.0894 0.24065,0.154722 0.36568,0.224409 0.11542,0.0442 0.22196,0.107839 0.33671,0.153347 0.0995,0.05662 0.20848,0.09162 0.31497,0.132788 0.0944,0.04002 0.18691,0.08283 0.27814,0.129603 0,0 -0.67874,0.446708 -0.67874,0.446708 v 0 c -0.0903,-0.04372 -0.18139,-0.08557 -0.27473,-0.122453 -0.1079,-0.04098 -0.21803,-0.07575 -0.31846,-0.133995 -0.1143,-0.05175 -0.22702,-0.107324 -0.34027,-0.161183 -0.12976,-0.07162 -0.25876,-0.145606 -0.37382,-0.239871 -0.11013,-0.09657 -0.17778,-0.182744 -0.22658,-0.322962 -0.0457,-0.111571 -0.0702,-0.226241 -0.0801,-0.346374 -0.0305,-0.105559 -0.10097,-0.165944 -0.19514,-0.220255 -0.10902,-0.07983 -0.22196,-0.156717 -0.3191,-0.250832 -0.382,-0.517123 0.62221,-0.527256 0.89338,-0.518806 0.20848,0.0017 0.41704,0.0033 0.62537,0.0117 0.21716,0.01174 0.43659,0.02292 0.64791,0.0783 0.17469,0.04838 0.33088,0.128962 0.47077,0.245672 0.16236,0.127275 0.32477,0.254491 0.48318,0.386665 0.16141,0.139741 0.31232,0.291248 0.47848,0.42575 0.10253,0.08106 0.21095,0.155532 0.29756,0.254703 0.0957,0.129423 0.18018,0.264178 0.25238,0.408324 0,0 -0.71289,0.400382 -0.71289,0.400382 z"
           inkscape:connector-curvature="0" />
        <path
           style="fill:#4682b4;fill-opacity:1;stroke:#4682b4;stroke-width:0.2;stroke-miterlimit:4;stroke-dasharray:none;stroke-opacity:1"
           id="path888"
           d="m -498.81961,55.738681 c 0.14146,-0.149783 0.28143,-0.301165 0.42855,-0.44544 0.11531,-0.119392 0.22586,-0.242257 0.34866,-0.354122 0.28881,-0.229957 0.0354,-0.03301 0.81931,-0.486226 0.0824,-0.04765 0.16041,-0.07392 0.25396,-0.09125 0.14368,-0.05645 0.29469,-0.0657 0.44715,-0.06686 0.25321,-0.005 0.50646,-0.0075 0.75971,-0.0095 0.16356,-5.38e-4 0.32558,-0.02886 0.48831,-0.04372 0.17218,-0.0093 0.34467,-0.0098 0.51704,-0.01145 0.16937,2.4e-5 0.33856,0.02329 0.50315,0.06245 0.11885,0.02723 0.2367,0.06934 0.34217,0.130976 0.0238,0.01927 0.0464,0.03182 0.0583,0.06166 0.0153,0.03854 0.017,0.0979 -0.025,0.122835 -0.24471,0.145486 -0.49383,0.283433 -0.74074,0.42515 -0.28182,0.101039 -0.0707,0.02842 0.60434,-0.353703 0.0179,-0.01012 -0.0354,0.0209 -0.0528,0.03173 -0.0489,0.03038 -0.0946,0.06481 -0.14139,0.09833 -0.0963,0.06671 -0.19104,0.135721 -0.28666,0.203497 -0.0254,0.01589 -0.0501,0.0328 -0.0761,0.04768 -0.25724,0.147347 -0.51437,0.294928 -0.77349,0.438955 -0.10622,0.05904 -0.23043,0.09415 -0.34278,0.139944 -0.23925,0.0737 -0.48326,0.131858 -0.7286,0.181297 -0.1967,0.03095 -0.39427,0.05801 -0.59227,0.07972 -0.15469,-0.0024 -0.29566,0.05765 -0.44336,0.09432 -0.13352,0.04059 -0.26964,0.07193 -0.40554,0.102896 -0.13554,0.03106 -0.27437,0.03697 -0.41276,0.04145 -0.10641,0.0089 -0.20903,4.8e-4 -0.3135,-0.01829 0,0 0.66766,-0.469398 0.66766,-0.469398 v 0 c 0.10063,0.01336 0.20147,0.01105 0.30277,0.0063 0.13567,-0.0068 0.27117,-0.01952 0.40302,-0.05412 0.13499,-0.03457 0.27167,-0.06229 0.4048,-0.104053 0.14726,-0.04003 0.29301,-0.08079 0.44713,-0.08259 0.19584,-0.02222 0.39137,-0.04895 0.58538,-0.08376 0.24371,-0.05081 0.48799,-0.106447 0.72134,-0.194382 0.0858,-0.03461 0.17269,-0.06737 0.25681,-0.106009 0.0279,-0.01283 0.10934,-0.05597 0.083,-0.04019 -0.40455,0.242101 -0.85318,0.491278 -0.5398,0.316758 0.0975,-0.06257 0.18576,-0.138309 0.28418,-0.198972 0.30606,-0.231412 0.63872,-0.422937 0.98656,-0.590462 -0.22078,0.127751 -0.44375,0.251799 -0.66235,0.383254 -0.0101,0.006 0.0231,-0.0045 0.0347,-0.0058 0.0152,-0.0017 0.0321,0.0092 0.0456,0.0022 0.013,-0.0067 -0.0735,-0.04719 -0.0325,-0.02957 -0.10376,-0.05187 -0.21385,-0.09007 -0.3274,-0.114201 -0.16081,-0.03596 -0.32556,-0.05123 -0.49039,-0.04812 -0.17162,9.74e-4 -0.34352,0.0023 -0.51453,0.01831 -0.16264,0.01576 -0.32527,0.04011 -0.48908,0.03497 -0.25121,-0.0014 -0.50257,-0.0021 -0.75356,0.0097 -0.15218,0.01333 -0.30015,0.03638 -0.44554,0.08507 -0.0652,0.02015 -0.12289,0.04332 -0.18314,0.07556 -0.0193,0.01035 -0.0766,0.04272 -0.0577,0.03159 0.82646,-0.487017 0.82233,-0.48491 0.56768,-0.331203 -0.12489,0.110751 -0.24495,0.224728 -0.35256,0.352877 -0.14847,0.139297 -0.28697,0.287908 -0.42648,0.435976 0,0 -0.75127,0.317964 -0.75127,0.317964 z"
           inkscape:connector-curvature="0" />
      </g>
      <circle
         r="19.588804"
         cy="27.273504"
         cx="-46.923943"
         id="path849"
         style="fill:none;fill-opacity:1;stroke:#4682b4;stroke-width:1.8405;stroke-miterlimit:4;stroke-dasharray:none;stroke-opacity:1" />
    </g>
    <circle
       style="fill:none;fill-opacity:1;stroke:none;stroke-width:0.264583;stroke-opacity:1"
       id="path820"
       cx="92.081963"
       cy="264.54758"
       r="13.5"
       transform="matrix(-0.92288506,0.38507553,0.38507553,0.92288506,0,0)" />
    <circle
       style="fill:none;fill-opacity:1;stroke:none;stroke-width:0.264583;stroke-opacity:1"
       id="path820-3"
       cx="279.56573"
       cy="-18.367638"
       r="13.5"
       transform="matrix(0.12553029,0.99208979,0.99208979,-0.12553029,0,0)" />
  </g>
</svg>
