<?xml version="1.0" encoding="UTF-8" standalone="no"?>
<svg
   xmlns:dc="http://purl.org/dc/elements/1.1/"
   xmlns:cc="http://creativecommons.org/ns#"
   xmlns:rdf="http://www.w3.org/1999/02/22-rdf-syntax-ns#"
   xmlns:svg="http://www.w3.org/2000/svg"
   xmlns="http://www.w3.org/2000/svg"
   xmlns:sodipodi="http://sodipodi.sourceforge.net/DTD/sodipodi-0.dtd"
   xmlns:inkscape="http://www.inkscape.org/namespaces/inkscape"
   fill="none"
   height="48"
   viewBox="0 0 48 48"
   width="48"
   version="1.1"
   id="svg10"
   sodipodi:docname="favicon.svg"
   inkscape:version="0.92.4 (5da689c313, 2019-01-14)">
  <metadata
     id="metadata16">
    <rdf:RDF>
      <cc:Work
         rdf:about="">
        <dc:format>image/svg+xml</dc:format>
        <dc:type
           rdf:resource="http://purl.org/dc/dcmitype/StillImage" />
        <dc:title></dc:title>
      </cc:Work>
    </rdf:RDF>
  </metadata>
  <defs
     id="defs14" />
  <sodipodi:namedview
     pagecolor="#ffffff"
     bordercolor="#666666"
     borderopacity="1"
     objecttolerance="10"
     gridtolerance="10"
     guidetolerance="10"
     inkscape:pageopacity="0"
     inkscape:pageshadow="2"
     inkscape:window-width="3840"
     inkscape:window-height="2054"
     id="namedview12"
     showgrid="false"
     inkscape:zoom="5.4137863"
     inkscape:cx="-126.24677"
     inkscape:cy="40.959542"
     inkscape:window-x="-11"
     inkscape:window-y="-11"
     inkscape:window-maximized="1"
     inkscape:current-layer="layer1"
     inkscape:document-rotation="0" />
  <g
     inkscape:label="Capa 1"
     id="layer1"
     transform="matrix(2.0173498,0,0,2.0173498,-10.577952,-537.59945)">
    <circle
       style="fill:none;fill-opacity:1;stroke:none;stroke-width:0.264583;stroke-opacity:1"
       id="path820"
       cx="92.081963"
       cy="264.54758"
       r="13.5"
       transform="matrix(-0.92288506,0.38507553,0.38507553,0.92288506,0,0)" />
    <circle
       style="fill:none;fill-opacity:1;stroke:none;stroke-width:0.264583;stroke-opacity:1"
       id="path820-3"
       cx="279.56573"
       cy="-18.367638"
       r="13.5"
       transform="matrix(0.12553029,0.99208979,0.99208979,-0.12553029,0,0)" />
    <path
       inkscape:connector-curvature="0"
       id="rect833"
       style="fill:none;stroke:#4682b4;stroke-width:1.43721497;stroke-linecap:round;stroke-linejoin:round;stroke-miterlimit:4;stroke-dasharray:none;stroke-opacity:1;paint-order:stroke fill markers"
       d="m 14.391334,271.15672 h -1.789551 c -2.345347,0 -4.2334889,1.88806 -4.2334889,4.2334 v 9.61586 c 0,2.34536 1.8881419,4.23341 4.2334889,4.23341 h 10.245013 c 2.345347,0 4.23349,-1.88805 4.23349,-4.23341 v -9.61586 c 0,-2.34534 -1.888143,-4.2334 -4.23349,-4.2334 H 21.76928"
       sodipodi:nodetypes="cssssssssc" />
    <path
       inkscape:connector-curvature="0"
       style="fill:none;stroke:#4682b4;stroke-width:1.43721688;stroke-linecap:round;stroke-linejoin:round;stroke-miterlimit:4;stroke-dasharray:none;stroke-opacity:1"
       d="m 13.713322,272.93122 c -1.523075,0.49156 -2.650967,2.43638 -2.384774,4.98243 0.155492,1.76834 0.50052,8.69456 4.476285,8.93819 3.594104,0.2625 9.505135,-6.07941 9.17159,-10.08723 -0.349014,-2.41536 -2.497773,-3.01627 -3.028891,-3.42788"
       id="path837"
       sodipodi:nodetypes="ccccc" />
    <path
       inkscape:connector-curvature="0"
       style="fill:none;fill-opacity:1;stroke:#4682b4;stroke-width:1.2181288;stroke-linecap:round;stroke-linejoin:round;stroke-miterlimit:4;stroke-dasharray:none;stroke-opacity:1"
       d="m 17.578678,272.76136 c 3.177512,0.0881 4.079111,-1.51667 4.828803,-3.87779 0,0 -1.930415,-0.38068 -2.606877,0.22007 -0.676461,0.60075 -1.616762,1.9501 -1.616762,1.9501 0,0 -0.593848,-1.20837 -1.523985,-2.04942 -0.889636,-0.76118 -3.548081,-1.89718 -3.753124,-1.54952 0.203612,0.96771 1.503517,5.12369 4.671945,5.30656 z"
       id="path851"
       sodipodi:nodetypes="ccscccc" />
  </g>
</svg>
