<svg id="frappe-symbols" aria-hidden="true" style="position: absolute; width: 0; height: 0; overflow: hidden;" class="d-block" xmlns="http://www.w3.org/2000/svg">

  <symbol viewBox="0 0 16 16" fill="none" xmlns="http://www.w3.org/2000/svg" id="icon-pibidav">
    <g id="surface1">
      <path style=" stroke:none;fill-rule:nonzero;fill:rgb(0%,0%,0%);fill-opacity:1;" d="M 7.03125 7.765625 L 4.140625 7.765625 C 4.011719 7.765625 3.90625 7.871094 3.90625 8 C 3.90625 8.128906 4.011719 8.234375 4.140625 8.234375 L 6.796875 8.234375 L 6.796875 13.339844 C 6.796875 13.476562 6.683594 13.589844 6.542969 13.589844 C 6.542969 13.589844 6.542969 13.589844 6.539062 13.589844 C 6.402344 13.589844 6.292969 13.480469 6.292969 13.34375 L 6.292969 9.945312 C 6.292969 9.816406 6.1875 9.710938 6.058594 9.710938 L 3.242188 9.710938 L 2.34375 8.804688 C 2.296875 8.757812 2.238281 8.734375 2.175781 8.734375 L 1.4375 8.734375 L 1.4375 8.234375 L 3.121094 8.234375 C 3.25 8.234375 3.355469 8.128906 3.355469 8 C 3.355469 7.871094 3.25 7.765625 3.121094 7.765625 L 1.203125 7.765625 C 1.074219 7.765625 0.96875 7.871094 0.96875 8 L 0.96875 8.734375 L 0.234375 8.734375 C 0.105469 8.734375 0 8.839844 0 8.96875 L 0 13.339844 C 0 13.734375 0.324219 14.058594 0.71875 14.058594 L 6.542969 14.058594 C 6.546875 14.058594 6.550781 14.058594 6.550781 14.058594 C 6.945312 14.054688 7.265625 13.734375 7.265625 13.339844 L 7.265625 8 C 7.265625 7.871094 7.160156 7.765625 7.03125 7.765625 Z M 0.71875 13.589844 C 0.582031 13.589844 0.46875 13.476562 0.46875 13.339844 L 0.46875 9.203125 L 2.078125 9.203125 L 2.980469 10.109375 C 3.023438 10.152344 3.085938 10.179688 3.144531 10.179688 L 5.824219 10.179688 L 5.824219 13.34375 C 5.824219 13.429688 5.839844 13.511719 5.867188 13.589844 Z M 0.71875 13.589844 "/>
      <path style=" stroke:none;fill-rule:nonzero;fill:rgb(0%,0%,0%);fill-opacity:1;" d="M 15.765625 1.941406 L 13.363281 1.941406 C 13.234375 1.941406 13.128906 2.046875 13.128906 2.175781 C 13.128906 2.304688 13.234375 2.410156 13.363281 2.410156 L 15.53125 2.410156 L 15.53125 7.515625 C 15.53125 7.652344 15.417969 7.765625 15.28125 7.765625 C 15.140625 7.765625 15.03125 7.65625 15.03125 7.519531 L 15.03125 4.117188 C 15.03125 3.988281 14.925781 3.882812 14.796875 3.882812 L 11.980469 3.882812 L 11.078125 2.976562 C 11.035156 2.933594 10.972656 2.910156 10.914062 2.910156 L 10.175781 2.910156 L 10.175781 2.410156 L 12.34375 2.410156 C 12.472656 2.410156 12.578125 2.304688 12.578125 2.175781 C 12.578125 2.046875 12.472656 1.941406 12.34375 1.941406 L 9.941406 1.941406 C 9.8125 1.941406 9.707031 2.046875 9.707031 2.175781 L 9.707031 2.910156 L 8.96875 2.910156 C 8.839844 2.910156 8.734375 3.015625 8.734375 3.144531 L 8.734375 7.515625 C 8.734375 7.910156 9.058594 8.234375 9.457031 8.234375 L 11.859375 8.234375 C 11.988281 8.234375 12.09375 8.128906 12.09375 8 C 12.09375 7.871094 11.988281 7.765625 11.859375 7.765625 L 9.457031 7.765625 C 9.316406 7.765625 9.203125 7.652344 9.203125 7.515625 L 9.203125 3.378906 L 10.816406 3.378906 L 11.714844 4.285156 C 11.761719 4.328125 11.820312 4.351562 11.882812 4.351562 L 14.5625 4.351562 L 14.5625 7.519531 C 14.5625 7.605469 14.578125 7.6875 14.605469 7.765625 L 12.878906 7.765625 C 12.75 7.765625 12.644531 7.871094 12.644531 8 C 12.644531 8.128906 12.75 8.234375 12.878906 8.234375 L 15.28125 8.234375 C 15.675781 8.234375 16 7.910156 16 7.515625 L 16 2.175781 C 16 2.046875 15.894531 1.941406 15.765625 1.941406 Z M 15.765625 1.941406 "/>
      <path style=" stroke:none;fill-rule:nonzero;fill:rgb(0%,0%,0%);fill-opacity:1;" d="M 8.238281 3.632812 C 8.238281 3.234375 7.914062 2.910156 7.515625 2.910156 L 4.601562 2.910156 C 3.667969 2.910156 2.910156 3.667969 2.910156 4.601562 L 2.910156 4.894531 C 2.652344 4.800781 2.355469 4.859375 2.148438 5.0625 C 1.867188 5.34375 1.867188 5.804688 2.148438 6.085938 L 3.121094 7.054688 C 3.460938 7.332031 3.800781 7.332031 4.144531 7.058594 L 5.113281 6.089844 C 5.394531 5.808594 5.394531 5.347656 5.113281 5.066406 C 4.910156 4.859375 4.613281 4.804688 4.355469 4.898438 L 4.355469 4.601562 C 4.355469 4.464844 4.464844 4.355469 4.601562 4.355469 L 7.515625 4.355469 C 7.914062 4.355469 8.238281 4.03125 8.238281 3.632812 Z M 7.515625 3.886719 L 4.601562 3.886719 C 4.207031 3.886719 3.886719 4.207031 3.886719 4.601562 L 3.886719 5.367188 C 3.945312 5.597656 4.078125 5.65625 4.285156 5.53125 L 4.421875 5.394531 C 4.523438 5.296875 4.683594 5.296875 4.78125 5.398438 C 4.882812 5.496094 4.882812 5.65625 4.78125 5.757812 L 3.8125 6.726562 C 3.714844 6.820312 3.546875 6.820312 3.453125 6.726562 L 2.480469 5.753906 C 2.382812 5.65625 2.382812 5.492188 2.480469 5.394531 C 2.601562 5.292969 2.722656 5.292969 2.839844 5.394531 L 2.976562 5.53125 C 3.183594 5.652344 3.316406 5.597656 3.378906 5.363281 L 3.378906 4.601562 C 3.378906 3.925781 3.925781 3.378906 4.601562 3.378906 L 7.515625 3.378906 C 7.65625 3.378906 7.769531 3.492188 7.769531 3.632812 C 7.769531 3.773438 7.65625 3.886719 7.515625 3.886719 Z M 7.515625 3.886719 "/>
      <path style=" stroke:none;fill-rule:nonzero;fill:rgb(0%,0%,0%);fill-opacity:1;" d="M 12.878906 8.945312 C 12.601562 8.667969 12.132812 8.667969 11.855469 8.941406 L 10.886719 9.910156 C 10.605469 10.191406 10.601562 10.652344 10.886719 10.933594 C 11.089844 11.140625 11.386719 11.195312 11.644531 11.101562 L 11.644531 11.398438 C 11.644531 11.535156 11.535156 11.644531 11.398438 11.644531 L 8.484375 11.644531 C 8.085938 11.644531 7.761719 11.96875 7.761719 12.367188 C 7.761719 12.765625 8.085938 13.089844 8.484375 13.089844 L 11.398438 13.089844 C 12.332031 13.089844 13.089844 12.332031 13.089844 11.398438 L 13.089844 11.105469 C 13.347656 11.199219 13.644531 11.140625 13.851562 10.9375 C 14.132812 10.65625 14.132812 10.195312 13.851562 9.914062 Z M 13.519531 10.605469 C 13.417969 10.707031 13.257812 10.707031 13.160156 10.605469 L 13.023438 10.46875 C 12.816406 10.347656 12.683594 10.402344 12.621094 10.636719 L 12.621094 11.398438 C 12.621094 12.074219 12.074219 12.621094 11.398438 12.621094 L 8.484375 12.621094 C 8.34375 12.621094 8.230469 12.507812 8.230469 12.367188 C 8.230469 12.226562 8.34375 12.113281 8.484375 12.113281 L 11.398438 12.113281 C 11.792969 12.113281 12.113281 11.792969 12.113281 11.398438 L 12.113281 10.632812 C 12.054688 10.402344 11.921875 10.34375 11.714844 10.46875 L 11.578125 10.605469 C 11.476562 10.703125 11.316406 10.703125 11.21875 10.601562 C 11.117188 10.503906 11.117188 10.34375 11.21875 10.242188 L 12.1875 9.273438 C 12.285156 9.179688 12.453125 9.179688 12.546875 9.273438 L 13.519531 10.246094 C 13.617188 10.34375 13.617188 10.507812 13.519531 10.605469 Z M 13.519531 10.605469 "/>
    </g>
  </symbol>
  
  <symbol viewBox="0 0 16 16" fill="none" xmlns="http://www.w3.org/2000/svg" id="icon-pibico">
    <g id="surface1">
      <path style="fill:none;stroke-width:7.46389;stroke-linecap:round;stroke-linejoin:round;stroke:rgb(27.45098%,50.980392%,70.588235%);stroke-opacity:1;stroke-miterlimit:4;" d="M 49.344788 29.203386 L 40.051298 29.203386 C 27.880464 29.203386 18.090881 38.99297 18.090881 51.196876 L 18.090881 101.136982 C 18.090881 113.307815 27.880464 123.097399 40.051298 123.097399 L 93.265622 123.097399 C 105.436456 123.097399 115.259112 113.307815 115.259112 101.136982 L 115.259112 51.196876 C 115.259112 38.99297 105.436456 29.203386 93.265622 29.203386 L 87.676299 29.203386 " transform="matrix(0.11811,0,0,0.11811,0.000000590551,0)"/>
<path style="fill:none;stroke-width:7.4639;stroke-linecap:round;stroke-linejoin:round;stroke:rgb(27.45098%,50.980392%,70.588235%);stroke-opacity:1;stroke-miterlimit:4;" d="M 45.839059 38.43073 C 37.934631 40.977345 32.080725 51.064585 33.469787 64.293752 C 34.263538 73.488023 36.049475 109.438284 56.686976 110.695055 C 75.373174 112.084117 106.064841 79.143492 104.34505 58.307554 C 102.526039 45.772918 91.347393 42.664064 88.602341 40.514324 " transform="matrix(0.11811,0,0,0.11811,0.000000590551,0)"/>
      <path style="fill:none;stroke-width:6.32611;stroke-linecap:round;stroke-linejoin:round;stroke:rgb(27.45098%,50.980392%,70.588235%);stroke-opacity:1;stroke-miterlimit:4;" d="M 65.91432 37.537761 C 82.417705 38.000782 87.080987 29.666407 90.983591 17.396355 C 90.983591 17.396355 80.962497 15.41198 77.456768 18.553907 C 73.951038 21.662761 69.056247 28.674219 69.056247 28.674219 C 69.056247 28.674219 65.980465 22.390365 61.151819 18.02474 C 56.521611 14.05599 42.730204 8.169011 41.638798 9.988021 C 42.697131 15.015105 49.444007 36.578647 65.91432 37.537761 Z M 65.91432 37.537761 " transform="matrix(0.11811,0,0,0.11811,0.000000590551,0)"/>
    </g>
  </symbol>
  
</svg>
